<svg width="203" height="40" viewBox="0 0 203 40" fill="none" xmlns="http://www.w3.org/2000/svg">
<rect x="0.5" y="0.5" width="202" height="39" rx="19.5" fill="white" style="fill:white;fill-opacity:1;"/>
<rect x="0.5" y="0.5" width="202" height="39" rx="19.5" stroke="#543C52" style="stroke:#543C52;stroke:color(display-p3 0.3294 0.2353 0.3216);stroke-opacity:1;"/>
<path d="M14.1667 25.8333H15.3542L23.5 17.6875L22.3125 16.5L14.1667 24.6458V25.8333ZM12.5 27.5V23.9583L23.5 12.9792C23.6667 12.8264 23.8508 12.7083 24.0525 12.625C24.2542 12.5417 24.4658 12.5 24.6875 12.5C24.9092 12.5 25.1244 12.5417 25.3333 12.625C25.5422 12.7083 25.7228 12.8333 25.875 13L27.0208 14.1667C27.1875 14.3194 27.3092 14.5 27.3858 14.7083C27.4625 14.9167 27.5006 15.125 27.5 15.3333C27.5 15.5556 27.4619 15.7675 27.3858 15.9692C27.3097 16.1708 27.1881 16.3547 27.0208 16.5208L16.0417 27.5H12.5ZM22.8958 17.1042L22.3125 16.5L23.5 17.6875L22.8958 17.1042Z" fill="#543C52" style="fill:#543C52;fill:color(display-p3 0.3294 0.2353 0.3216);fill-opacity:1;"/>
<path d="M44.662 15.2C45.642 15.2 46.4447 15.522 47.07 16.166C47.7047 16.81 48.022 17.6313 48.022 18.63C48.022 19.6287 47.7047 20.45 47.07 21.094C46.4447 21.738 45.642 22.06 44.662 22.06H42.66V25H41.05V15.2H44.662ZM44.564 20.618C45.096 20.618 45.5347 20.4313 45.88 20.058C46.2347 19.6753 46.412 19.1993 46.412 18.63C46.412 18.0607 46.2347 17.5893 45.88 17.216C45.5347 16.8333 45.096 16.642 44.564 16.642H42.66V20.618H44.564ZM54.9661 21.402C54.9661 21.57 54.9521 21.85 54.9241 22.242H50.0801C50.0988 22.7553 50.2668 23.152 50.5841 23.432C50.9014 23.7027 51.3401 23.838 51.9001 23.838C52.6188 23.838 53.1041 23.5907 53.3561 23.096H54.8961C54.7934 23.7027 54.4621 24.202 53.9021 24.594C53.3514 24.9767 52.6841 25.168 51.9001 25.168C50.8734 25.168 50.0614 24.86 49.4641 24.244C48.8668 23.628 48.5681 22.7927 48.5681 21.738C48.5681 20.6927 48.8621 19.862 49.4501 19.246C50.0474 18.6207 50.8454 18.308 51.8441 18.308C52.7774 18.308 53.5288 18.5973 54.0981 19.176C54.6768 19.7453 54.9661 20.4873 54.9661 21.402ZM50.0801 21.08H53.4681C53.4588 20.576 53.3094 20.1887 53.0201 19.918C52.7401 19.6473 52.3388 19.512 51.8161 19.512C51.2841 19.512 50.8641 19.6567 50.5561 19.946C50.2481 20.2353 50.0894 20.6133 50.0801 21.08ZM61.8795 23.558H62.6355V26.68H61.1095V25H56.9935V26.68H55.3835V23.558H56.0555C56.4195 23.3247 56.6015 22.8393 56.6015 22.102V18.476H61.8795V23.558ZM57.6795 23.74H60.3535V19.736H58.1275V22.032C58.1275 22.6947 57.9782 23.264 57.6795 23.74ZM66.6725 25.168C65.6552 25.168 64.8665 24.846 64.3065 24.202C63.7465 23.558 63.4665 22.7367 63.4665 21.738C63.4665 20.7487 63.7605 19.932 64.3485 19.288C64.9365 18.6347 65.7252 18.308 66.7145 18.308C67.1532 18.308 67.5545 18.4013 67.9185 18.588C68.2825 18.7747 68.5625 19.0313 68.7585 19.358V18.476H70.2845V25H68.7585V24.118C68.5718 24.4353 68.2778 24.692 67.8765 24.888C67.4845 25.0747 67.0832 25.168 66.6725 25.168ZM66.8965 23.81C67.5218 23.81 67.9978 23.614 68.3245 23.222C68.6605 22.83 68.8285 22.3353 68.8285 21.738C68.8285 21.1407 68.6605 20.646 68.3245 20.254C67.9978 19.862 67.5218 19.666 66.8965 19.666C66.3085 19.666 65.8418 19.862 65.4965 20.254C65.1605 20.6367 64.9925 21.1313 64.9925 21.738C64.9925 22.3447 65.1605 22.844 65.4965 23.236C65.8418 23.6187 66.3085 23.81 66.8965 23.81ZM76.1617 18.476V19.89H73.6837V25H72.1577V18.476H76.1617ZM81.7753 18.476H83.3013V25.028C83.3013 26.0267 83.0167 26.8013 82.4473 27.352C81.8967 27.856 81.1593 28.108 80.2353 28.108C79.274 28.108 78.5273 27.884 77.9953 27.436C77.5287 27.0253 77.286 26.4607 77.2673 25.742H78.8073C78.8447 26.1153 78.966 26.3907 79.1713 26.568C79.386 26.7547 79.7313 26.848 80.2073 26.848C80.6927 26.848 81.0753 26.6893 81.3553 26.372C81.6353 26.064 81.7753 25.5787 81.7753 24.916V24.09C81.3553 24.8087 80.6553 25.168 79.6753 25.168C78.9007 25.168 78.3033 24.9207 77.8833 24.426C77.4727 23.922 77.2673 23.264 77.2673 22.452V18.476H78.7933V22.13C78.7933 23.2593 79.2647 23.824 80.2073 23.824C80.7207 23.824 81.108 23.642 81.3693 23.278C81.64 22.914 81.7753 22.438 81.7753 21.85V18.476ZM85.183 18.476H88.179C88.6177 18.476 88.9864 18.532 89.285 18.644C89.593 18.756 89.817 18.91 89.957 19.106C90.097 19.2927 90.195 19.4747 90.251 19.652C90.307 19.82 90.335 20.002 90.335 20.198C90.335 20.5807 90.1857 20.9073 89.887 21.178C89.5884 21.4487 89.2337 21.598 88.823 21.626C89.271 21.6447 89.6537 21.794 89.971 22.074C90.2977 22.3447 90.461 22.718 90.461 23.194C90.461 23.3807 90.4237 23.5673 90.349 23.754C90.2837 23.9407 90.1717 24.1367 90.013 24.342C89.8544 24.538 89.607 24.6967 89.271 24.818C88.9444 24.9393 88.5477 25 88.081 25H85.183V18.476ZM88.053 21.15C88.277 21.15 88.459 21.0753 88.599 20.926C88.739 20.7673 88.809 20.576 88.809 20.352C88.809 20.1187 88.739 19.9273 88.599 19.778C88.459 19.6193 88.277 19.54 88.053 19.54H86.667V21.15H88.053ZM86.667 22.214V23.936H88.109C88.3424 23.936 88.5384 23.852 88.697 23.684C88.8557 23.516 88.935 23.3153 88.935 23.082C88.935 22.8487 88.8557 22.648 88.697 22.48C88.5384 22.3027 88.3424 22.214 88.109 22.214H86.667ZM94.6373 25.168C93.62 25.168 92.8313 24.846 92.2713 24.202C91.7113 23.558 91.4313 22.7367 91.4313 21.738C91.4313 20.7487 91.7253 19.932 92.3133 19.288C92.9013 18.6347 93.69 18.308 94.6793 18.308C95.118 18.308 95.5193 18.4013 95.8833 18.588C96.2473 18.7747 96.5273 19.0313 96.7233 19.358V18.476H98.2493V25H96.7233V24.118C96.5366 24.4353 96.2426 24.692 95.8413 24.888C95.4493 25.0747 95.048 25.168 94.6373 25.168ZM94.8613 23.81C95.4866 23.81 95.9626 23.614 96.2893 23.222C96.6253 22.83 96.7933 22.3353 96.7933 21.738C96.7933 21.1407 96.6253 20.646 96.2893 20.254C95.9626 19.862 95.4866 19.666 94.8613 19.666C94.2733 19.666 93.8066 19.862 93.4613 20.254C93.1253 20.6367 92.9573 21.1313 92.9573 21.738C92.9573 22.3447 93.1253 22.844 93.4613 23.236C93.8066 23.6187 94.2733 23.81 94.8613 23.81ZM104.84 18.476V19.89H102.95V25H101.424V19.89H99.5625V18.476H104.84ZM110.574 20.8L107.676 24.454V25H106.15V18.476H107.676V22.746L110.574 19.064V18.476H112.1V25H110.574V20.8ZM118.98 17.216C118.765 17.4307 118.494 17.538 118.168 17.538C117.841 17.538 117.57 17.4307 117.356 17.216C117.141 16.992 117.034 16.7213 117.034 16.404C117.034 16.0867 117.141 15.8207 117.356 15.606C117.57 15.382 117.841 15.27 118.168 15.27C118.494 15.27 118.765 15.382 118.98 15.606C119.194 15.8207 119.302 16.0867 119.302 16.404C119.302 16.7213 119.194 16.992 118.98 17.216ZM117.398 25V18.476H118.924V25H117.398ZM120.8 25V18.476H122.326V21.052H125.308V18.476H126.834V25H125.308V22.326H122.326V25H120.8ZM136.176 21.738C136.176 22.634 135.873 23.418 135.266 24.09C134.66 24.762 133.894 25.1167 132.97 25.154V27.94H131.43V25.154C130.506 25.1167 129.741 24.762 129.134 24.09C128.528 23.418 128.224 22.634 128.224 21.738C128.224 20.8513 128.528 20.072 129.134 19.4C129.741 18.7187 130.506 18.3593 131.43 18.322V15.2H132.97V18.322C133.894 18.3593 134.66 18.7187 135.266 19.4C135.873 20.072 136.176 20.8513 136.176 21.738ZM129.75 21.738C129.75 22.3167 129.909 22.816 130.226 23.236C130.544 23.656 130.978 23.8707 131.528 23.88V19.596C130.978 19.6053 130.544 19.82 130.226 20.24C129.909 20.6507 129.75 21.15 129.75 21.738ZM132.872 23.88C133.423 23.8707 133.857 23.656 134.174 23.236C134.492 22.816 134.65 22.3167 134.65 21.738C134.65 21.15 134.492 20.6507 134.174 20.24C133.857 19.82 133.423 19.6053 132.872 19.596V23.88ZM143.155 24.202C142.539 24.846 141.703 25.168 140.649 25.168C139.594 25.168 138.754 24.846 138.129 24.202C137.513 23.5487 137.205 22.7273 137.205 21.738C137.205 20.7487 137.513 19.932 138.129 19.288C138.754 18.6347 139.594 18.308 140.649 18.308C141.703 18.308 142.539 18.6347 143.155 19.288C143.78 19.932 144.093 20.7487 144.093 21.738C144.093 22.7273 143.78 23.5487 143.155 24.202ZM139.235 23.236C139.58 23.6187 140.051 23.81 140.649 23.81C141.246 23.81 141.713 23.6187 142.049 23.236C142.394 22.8533 142.567 22.354 142.567 21.738C142.567 21.122 142.394 20.6227 142.049 20.24C141.713 19.8573 141.246 19.666 140.649 19.666C140.051 19.666 139.58 19.8573 139.235 20.24C138.899 20.6227 138.731 21.122 138.731 21.738C138.731 22.354 138.899 22.8533 139.235 23.236ZM149.182 18.308C150.115 18.308 150.867 18.6253 151.436 19.26C152.005 19.8853 152.29 20.7113 152.29 21.738C152.29 22.746 151.991 23.572 151.394 24.216C150.797 24.8507 150.027 25.168 149.084 25.168C148.655 25.168 148.249 25.0747 147.866 24.888C147.483 24.692 147.194 24.4353 146.998 24.118V27.94H145.472V18.476H146.998V19.358C147.194 19.0407 147.493 18.7887 147.894 18.602C148.295 18.406 148.725 18.308 149.182 18.308ZM148.86 23.81C149.42 23.81 149.877 23.6187 150.232 23.236C150.587 22.844 150.764 22.3447 150.764 21.738C150.764 21.1313 150.587 20.6367 150.232 20.254C149.877 19.862 149.42 19.666 148.86 19.666C148.281 19.666 147.815 19.8573 147.46 20.24C147.105 20.6227 146.928 21.122 146.928 21.738C146.928 22.354 147.105 22.8533 147.46 23.236C147.815 23.6187 148.281 23.81 148.86 23.81ZM153.673 25V18.476H155.955L157.747 22.942L159.539 18.476H161.821V25H160.365V19.974L158.265 25H157.229L155.129 19.974V25H153.673ZM166.409 25.168C165.391 25.168 164.603 24.846 164.043 24.202C163.483 23.558 163.203 22.7367 163.203 21.738C163.203 20.7487 163.497 19.932 164.085 19.288C164.673 18.6347 165.461 18.308 166.451 18.308C166.889 18.308 167.291 18.4013 167.655 18.588C168.019 18.7747 168.299 19.0313 168.495 19.358V18.476H170.021V25H168.495V24.118C168.308 24.4353 168.014 24.692 167.613 24.888C167.221 25.0747 166.819 25.168 166.409 25.168ZM166.633 23.81C167.258 23.81 167.734 23.614 168.061 23.222C168.397 22.83 168.565 22.3353 168.565 21.738C168.565 21.1407 168.397 20.646 168.061 20.254C167.734 19.862 167.258 19.666 166.633 19.666C166.045 19.666 165.578 19.862 165.233 20.254C164.897 20.6367 164.729 21.1313 164.729 21.738C164.729 22.3447 164.897 22.844 165.233 23.236C165.578 23.6187 166.045 23.81 166.633 23.81ZM177.718 23.558H178.474V26.68H176.948V25H171.894V18.476H173.42V23.726H176.192V18.476H177.718V23.558ZM181.445 17.216C181.23 17.4307 180.959 17.538 180.633 17.538C180.306 17.538 180.035 17.4307 179.821 17.216C179.606 16.992 179.499 16.7213 179.499 16.404C179.499 16.0867 179.606 15.8207 179.821 15.606C180.035 15.382 180.306 15.27 180.633 15.27C180.959 15.27 181.23 15.382 181.445 15.606C181.659 15.8207 181.767 16.0867 181.767 16.404C181.767 16.7213 181.659 16.992 181.445 17.216ZM179.863 25V18.476H181.389V25H179.863ZM189.033 18.308C190.088 18.308 190.923 18.6347 191.539 19.288C192.164 19.932 192.477 20.7487 192.477 21.738C192.477 22.7273 192.164 23.5487 191.539 24.202C190.923 24.846 190.088 25.168 189.033 25.168C188.1 25.168 187.33 24.9113 186.723 24.398C186.126 23.8753 185.762 23.1987 185.631 22.368H184.791V25H183.265V18.476H184.791V21.094H185.645C185.776 20.2727 186.14 19.6053 186.737 19.092C187.344 18.5693 188.109 18.308 189.033 18.308ZM187.619 23.236C187.964 23.6187 188.436 23.81 189.033 23.81C189.63 23.81 190.097 23.6187 190.433 23.236C190.778 22.8533 190.951 22.354 190.951 21.738C190.951 21.122 190.778 20.6227 190.433 20.24C190.097 19.8573 189.63 19.666 189.033 19.666C188.436 19.666 187.964 19.8573 187.619 20.24C187.283 20.6227 187.115 21.122 187.115 21.738C187.115 22.354 187.283 22.8533 187.619 23.236Z" fill="#543C52" style="fill:#543C52;fill:color(display-p3 0.3294 0.2353 0.3216);fill-opacity:1;"/>
</svg>
